HIERARCHY
ROOT Pelvis
{
	OFFSET 0.000000 0.941512 0.000000
	CHANNELS 6 Xposition Yposition Zposition Zrotation Yrotation Xrotation 
	JOINT Pelvis_L_Hip
	{
		OFFSET 0.000000 0.000000 0.000000
		CHANNELS 3 Zrotation Yrotation Xrotation
		JOINT L_Hip
		{
			OFFSET 0.062321 -0.080322 -0.016990
			CHANNELS 3 Zrotation Yrotation Xrotation
			JOINT L_Knee
			{
				OFFSET 0.093051 -0.381305 -0.029784
				CHANNELS 3 Zrotation Yrotation Xrotation
				JOINT L_Ankle
				{
					OFFSET -0.010371 -0.431000 -0.033614
					CHANNELS 3 Zrotation Yrotation Xrotation
					End Site #name: L_Foot
					{
						OFFSET 0.069299 -0.038670 0.119418
					}
				}
			}
		}
	}
	JOINT Pelvis_R_Hip
	{
		OFFSET 0.000000 0.000000 0.000000
		CHANNELS 3 Zrotation Yrotation Xrotation
		JOINT R_Hip
		{
			OFFSET -0.055334 -0.094904 -0.002373
			CHANNELS 3 Zrotation Yrotation Xrotation
			JOINT R_Knee
			{
				OFFSET -0.064207 -0.384370 -0.019592
				CHANNELS 3 Zrotation Yrotation Xrotation
				JOINT R_Ankle
				{
					OFFSET 0.025418 -0.419734 -0.065953
					CHANNELS 3 Zrotation Yrotation Xrotation
					End Site #name: R_Foot
					{
						OFFSET -0.057233 -0.039888 0.132134
					}
				}
			}
		}
	}
	JOINT Pelvis_Spine1
	{
		OFFSET 0.000000 0.000000 0.000000
		CHANNELS 3 Zrotation Yrotation Xrotation
		JOINT Spine1
		{
			OFFSET -0.005562 0.124093 -0.043360
			CHANNELS 3 Zrotation Yrotation Xrotation
			JOINT Spine2
			{
				OFFSET 0.012244 0.139499 0.029894
				CHANNELS 3 Zrotation Yrotation Xrotation
				JOINT Spine3
				{
					OFFSET -0.002556 0.056561 0.009225
					CHANNELS 3 Zrotation Yrotation Xrotation
					JOINT Spine3_Neck
					{
						OFFSET 0.000000 0.000000 0.000000
						CHANNELS 3 Zrotation Yrotation Xrotation
						JOINT Neck
						{
							OFFSET -0.005205 0.217920 -0.024551
							CHANNELS 3 Zrotation Yrotation Xrotation
							End Site #name: Head
							{
								OFFSET 0.002365 0.091850 0.046637
							}
						}
					}
					JOINT Spine3_L_Collar
					{
						OFFSET 0.000000 0.000000 0.000000
						CHANNELS 3 Zrotation Yrotation Xrotation
						JOINT L_Collar
						{
							OFFSET 0.072225 0.116603 -0.009480
							CHANNELS 3 Zrotation Yrotation Xrotation
							JOINT L_Shoulder
							{
								OFFSET 0.115937 -0.058643 -0.021018
								CHANNELS 3 Zrotation Yrotation Xrotation
								JOINT L_Elbow
								{
									OFFSET 0.021994 -0.254722 -0.024492
									CHANNELS 3 Zrotation Yrotation Xrotation
									End Site #name: L_Wrist
									{
										OFFSET 0.048810 -0.240214 0.103329
									}
								}
							}
						}
					}
					JOINT Spine3_R_Collar
					{
						OFFSET 0.000000 0.000000 0.000000
						CHANNELS 3 Zrotation Yrotation Xrotation
						JOINT R_Collar
						{
							OFFSET -0.073372 0.120704 -0.024611
							CHANNELS 3 Zrotation Yrotation Xrotation
							JOINT R_Shoulder
							{
								OFFSET -0.108089 -0.054969 -0.020504
								CHANNELS 3 Zrotation Yrotation Xrotation
								JOINT R_Elbow
								{
									OFFSET -0.033684 -0.260739 0.009889
									CHANNELS 3 Zrotation Yrotation Xrotation
									End Site #name: R_Wrist
									{
										OFFSET -0.067980 -0.232763 0.118463
									}
								}
							}
						}
					}
				}
			}
		}
	}
}
MOTION
Frames: 9
Frame Time: 0.041667
-2.034550 0.929460 0.481690 -0.255455 -4.577533 3.470893 0.000000 0.000000 0.000000 -19.346937 -4.107796 -13.718503 24.229590 11.391705 -48.505859 51.342493 51.225604 160.242066 0.000000 0.000000 0.000000 7.272083 -3.241621 12.557238 -15.638108 -4.057647 -35.634889 -114.228439 -16.406669 163.560696 0.000000 0.000000 0.000000 17.226437 1.788511 -22.299642 -15.978324 6.279317 17.273815 -0.503773 5.719580 20.472262 0.000000 0.000000 0.000000 6.875095 2.117264 -69.790418 0.000000 0.000000 0.000000 118.340062 16.383089 146.508667 -2.082918 -5.027743 -46.962147 35.686425 33.416456 -72.910100 0.000000 0.000000 0.000000 -174.352323 39.153075 41.184302 -153.711116 17.373706 9.316373 18.743166 -19.236437 66.648939 
-2.035344 0.934075 0.435347 -0.057345 -2.693287 4.467431 0.000000 0.000000 0.000000 -21.370085 -1.013550 -6.472916 17.339620 11.544374 -62.467879 43.187759 52.384882 152.010162 0.000000 0.000000 0.000000 8.315451 -2.245270 7.418846 -16.994595 -4.106096 -33.745733 -124.343217 -13.321977 162.501731 0.000000 0.000000 0.000000 17.185443 1.845446 -22.842557 -15.919137 5.923730 16.143899 -0.557208 5.676720 20.112481 0.000000 0.000000 0.000000 6.925935 1.613980 -68.716751 0.000000 0.000000 0.000000 117.799234 16.050020 143.848386 -2.388849 -4.805184 -45.694324 36.117738 34.257110 -72.930281 0.000000 0.000000 0.000000 177.469674 33.182608 19.447652 -141.278070 -41.661721 -19.122780 -33.392336 -12.367819 59.970576 
-2.037333 0.939308 0.392440 -0.591905 0.214892 4.821003 0.000000 0.000000 0.000000 -20.481453 2.239942 1.071429 11.623817 8.613544 -69.421424 52.897828 48.365470 164.698751 0.000000 0.000000 0.000000 10.090218 -1.296297 2.844848 -18.926726 -4.035862 -30.824371 -130.205739 -10.448412 162.785961 0.000000 0.000000 0.000000 17.092375 1.842759 -23.326624 -14.734007 5.456874 16.393155 -0.040694 6.703857 19.776469 0.000000 0.000000 0.000000 5.073660 0.424417 -69.271891 0.000000 0.000000 0.000000 117.026530 18.732223 142.706384 -1.629472 -4.375367 -47.241404 36.173714 34.795767 -72.932596 0.000000 0.000000 0.000000 172.366843 25.888593 -2.043015 -71.786997 -54.489044 -85.302781 -41.698769 -16.004730 27.333915 
-2.040545 0.943962 0.351105 -1.511010 3.270985 4.461127 0.000000 0.000000 0.000000 -17.695261 4.912518 8.386532 8.416228 5.361181 -68.872753 60.141151 44.011960 172.711496 0.000000 0.000000 0.000000 11.879173 -0.365699 -1.030553 -20.454461 -3.701484 -27.604296 -134.673908 -8.089992 163.011351 0.000000 0.000000 0.000000 17.021705 1.722523 -23.337111 -13.332758 4.964397 16.868014 0.647209 8.080763 20.017691 0.000000 0.000000 0.000000 3.669594 -0.950652 -70.691790 0.000000 0.000000 0.000000 115.955823 22.754582 142.420649 -0.110626 -3.709980 -49.701227 36.651334 35.705120 -72.320681 0.000000 0.000000 0.000000 171.617159 24.316085 -11.230998 -57.804076 -47.838775 -96.461061 -39.502305 -16.535402 19.199935 
-2.044753 0.945451 0.311161 -2.557615 5.769478 4.022457 0.000000 0.000000 0.000000 -14.150736 6.358095 14.125904 7.489004 3.415912 -61.831863 77.235996 34.880197 177.486305 0.000000 0.000000 0.000000 13.561817 0.633089 -4.750661 -22.045123 -3.216528 -24.540685 -139.351381 -5.542535 162.728001 0.000000 0.000000 0.000000 17.210543 1.697286 -23.698619 -12.204260 4.602521 17.505590 1.125883 9.368677 20.090851 0.000000 0.000000 0.000000 2.589462 -2.179067 -71.390983 0.000000 0.000000 0.000000 114.966854 25.922694 142.275373 1.782410 -2.926045 -52.840028 37.783037 36.779414 -70.382994 0.000000 0.000000 0.000000 170.774158 27.908799 -10.866923 -72.653379 -52.913290 -84.255904 -41.218048 -16.001829 27.130956 
-2.050268 0.943735 0.270441 -3.087636 7.088073 3.526839 0.000000 0.000000 0.000000 -12.067501 6.926937 17.335354 9.706565 3.238495 -48.850500 91.795250 29.137009 173.410776 0.000000 0.000000 0.000000 14.379154 1.643262 -8.265195 -23.059567 -2.664577 -22.054010 -146.341451 -4.031037 160.290347 0.000000 0.000000 0.000000 16.854417 1.651058 -23.686037 -11.570942 4.384770 17.783418 1.754041 10.564629 20.563378 0.000000 0.000000 0.000000 2.328916 -3.031151 -72.258970 0.000000 0.000000 0.000000 114.054864 28.891437 142.636539 3.657725 -2.138259 -56.126530 39.739609 38.338782 -67.735242 0.000000 0.000000 0.000000 171.799952 36.287972 -0.327986 -133.776956 -42.758796 -26.409181 -36.728862 -12.731362 54.413271 
-2.054950 0.937866 0.229363 -3.506340 8.197406 2.694536 0.000000 0.000000 0.000000 -11.132860 6.960007 18.388641 14.036843 2.824042 -31.765521 101.287940 29.290008 165.476431 0.000000 0.000000 0.000000 14.813425 2.385805 -10.828792 -23.853111 -2.446453 -20.909766 -159.451672 -3.800029 154.349453 0.000000 0.000000 0.000000 16.721784 1.533711 -23.289416 -10.852404 4.136628 18.004093 2.026675 11.546824 20.727956 0.000000 0.000000 0.000000 1.852489 -3.746306 -72.449021 0.000000 0.000000 0.000000 112.867426 30.886598 141.627153 5.205113 -1.354540 -58.433499 41.352907 39.489805 -65.474238 0.000000 0.000000 0.000000 174.065733 43.068693 9.407775 -153.591915 -1.176618 -1.426904 -7.491360 -16.632937 72.300538 
-2.060020 0.929554 0.185627 -3.507505 9.042817 2.298802 0.000000 0.000000 0.000000 -11.134854 6.910957 18.422732 18.191244 1.569814 -18.209595 104.497156 31.923543 159.611551 0.000000 0.000000 0.000000 14.572938 3.102205 -13.444219 -24.266231 -2.491670 -20.793738 -174.937907 -6.319994 146.991252 0.000000 0.000000 0.000000 16.313707 1.477955 -23.093329 -10.317272 3.914098 17.847325 2.486629 12.437259 21.249410 0.000000 0.000000 0.000000 0.540164 -4.603955 -73.030256 0.000000 0.000000 0.000000 111.511385 32.563207 140.147187 5.919269 -0.884661 -60.084638 42.237552 40.199013 -64.429686 0.000000 0.000000 0.000000 174.013077 43.092860 6.729377 -153.331213 -5.079172 -3.422367 -11.667860 -15.661974 70.541771 
-2.065410 0.920049 0.139160 -3.630233 10.358571 2.088259 0.000000 0.000000 0.000000 -10.594057 7.023753 19.531226 20.839831 1.311522 -16.119722 100.388853 31.814957 160.643842 0.000000 0.000000 0.000000 14.147555 3.667267 -15.735565 -24.695319 -3.074649 -22.228143 171.342245 -10.109220 140.863005 0.000000 0.000000 0.000000 16.465776 1.353984 -22.730203 -10.333801 3.818403 17.380486 3.010595 13.504982 21.248767 0.000000 0.000000 0.000000 -1.585661 -5.651265 -72.709151 0.000000 0.000000 0.000000 110.065856 34.360627 138.841425 6.427301 -0.395609 -62.501039 42.255375 40.455320 -64.647148 0.000000 0.000000 0.000000 -179.650818 52.507384 25.198571 -121.858025 62.236755 45.002872 49.498490 -8.127163 44.268451 
